<svg width="337" height="338" viewBox="0 0 337 338" fill="none" xmlns="http://www.w3.org/2000/svg">
<path d="M330.097 160.183C333.917 165.44 333.917 172.559 330.097 177.817L226.65 320.2C222.83 325.457 216.059 327.657 209.879 325.649L42.4979 271.263C36.3176 269.255 32.1332 263.496 32.1332 256.997L32.1332 81.0023C32.1332 74.5039 36.3176 68.7446 42.498 66.7365L209.879 12.351C216.06 10.3429 222.83 12.5428 226.65 17.8001L330.097 160.183Z" fill="url(#paint0_linear_138_120)"/>
<path d="M303.134 160.183C306.953 165.44 306.953 172.559 303.134 177.817L218.317 294.556C214.498 299.813 207.727 302.013 201.547 300.005L64.3117 255.415C58.1314 253.406 53.947 247.647 53.947 241.149L53.947 96.851C53.947 90.3526 58.1314 84.5933 64.3117 82.5852L201.547 37.9948C207.727 35.9866 214.498 38.1865 218.317 43.4438L303.134 160.183Z" fill="url(#paint1_linear_138_120)"/>
<path d="M330.097 160.183C333.917 165.44 333.917 172.559 330.097 177.817L226.65 320.2C222.83 325.457 216.059 327.657 209.879 325.649L42.4979 271.263C36.3176 269.255 32.1332 263.496 32.1332 256.997L32.1332 81.0023C32.1332 74.5039 36.3176 68.7446 42.498 66.7365L209.879 12.351C216.06 10.3429 222.83 12.5428 226.65 17.8001L330.097 160.183Z" fill="url(#paint2_linear_138_120)" style="mix-blend-mode:soft-light"/>
<defs>
<linearGradient id="paint0_linear_138_120" x1="336.503" y1="169" x2="5.36807e-05" y2="169" gradientUnits="userSpaceOnUse">
<stop stop-color="#FFE05C"/>
<stop offset="1" stop-color="#FFEEA9" stop-opacity="0"/>
</linearGradient>
<linearGradient id="paint1_linear_138_120" x1="309.539" y1="169" x2="26.9634" y2="169" gradientUnits="userSpaceOnUse">
<stop stop-color="#FFE05C"/>
<stop offset="1" stop-color="#FFEEA9" stop-opacity="0"/>
</linearGradient>
<linearGradient id="paint2_linear_138_120" x1="214.089" y1="169" x2="214.089" y2="0.748535" gradientUnits="userSpaceOnUse">
<stop stop-color="white" stop-opacity="0"/>
<stop offset="0.0001" stop-color="white"/>
<stop offset="0.645833" stop-color="white" stop-opacity="0"/>
</linearGradient>
</defs>
</svg>
