<svg width="673" height="673" viewBox="0 0 673 673" fill="none" xmlns="http://www.w3.org/2000/svg">
<path d="M668.838 315.678L583.644 110.037C580.809 103.13 576.016 97.3064 569.986 93.1832C567.77 91.637 565.399 90.3486 562.925 89.3178L495.615 61.435L357.283 4.12333C343.986 -1.39137 328.988 -1.39137 315.691 4.12333L177.875 61.2289L110.101 89.3178C107.575 90.3486 105.205 91.6886 103.04 93.1832C97.0098 97.3579 92.2167 103.182 89.382 110.037L4.13603 315.678C-1.37868 328.975 -1.37868 343.973 4.13603 357.271L86.7535 556.779C92.2682 570.076 102.834 580.693 116.182 586.208L315.691 668.825C328.988 674.34 343.986 674.34 357.283 668.825L556.792 586.208C570.089 580.693 580.706 570.128 586.221 556.779L668.838 357.271C674.353 343.973 674.353 328.975 668.838 315.678V315.678ZM315.691 72.2583C328.988 66.7436 343.986 66.7436 357.283 72.2583L425.315 100.45C435.881 104.831 438.561 118.489 430.521 126.581L367.797 189.304C350.686 206.415 322.958 206.415 305.847 189.304L242.918 126.375C234.826 118.283 237.557 104.625 248.123 100.244L315.639 72.2583H315.691ZM315.691 600.742L248.535 572.911C237.97 568.53 235.29 554.872 243.33 546.78L306.105 484.006C323.216 466.895 350.944 466.895 368.055 484.006L430.469 546.42C438.561 554.511 435.829 568.169 425.264 572.55L357.283 600.691C343.986 606.205 328.988 606.205 315.691 600.691V600.742ZM600.755 357.271L535.506 514.723C535.506 514.723 535.454 514.878 535.403 514.929C531.125 525.134 517.519 527.402 509.685 519.568L367.694 377.577C350.583 360.466 322.855 360.466 305.744 377.577L163.495 519.825C155.61 527.711 142.004 525.443 137.571 515.187C137.52 515.032 137.468 514.929 137.417 514.775L72.1679 357.322C66.6532 344.025 66.6532 329.027 72.1679 315.73L137.417 158.277C137.417 158.277 137.468 158.123 137.52 158.071C141.797 147.866 155.352 145.65 163.186 153.484L305.486 295.784C322.597 312.895 350.325 312.895 367.436 295.784L509.736 153.484C517.57 145.65 531.074 147.918 535.403 158.071C535.403 158.123 535.455 158.226 535.506 158.277L600.755 315.73C606.269 329.027 606.269 344.025 600.755 357.322V357.271Z" fill="#E5E4C3"/>
</svg>
