<svg width="1014" height="1011" viewBox="0 0 1014 1011" fill="none" xmlns="http://www.w3.org/2000/svg">
<path d="M164 148L176.021 152.979L181 165L176.021 177.021L164 182L151.979 177.021L147 165L151.979 152.979L164 148Z" fill="#00FDE4"/>
<path d="M17 495L29.0208 499.979L34 512L29.0208 524.021L17 529L4.97919 524.021L0 512L4.97919 499.979L17 495Z" fill="#00FDE4"/>
<path d="M164 829L176.021 833.979L181 846L176.021 858.021L164 863L151.979 858.021L147 846L151.979 833.979L164 829Z" fill="#00FDE4"/>
<path d="M857 829L869.021 833.979L874 846L869.021 858.021L857 863L844.979 858.021L840 846L844.979 833.979L857 829Z" fill="#00FDE4"/>
<path d="M507 977L519.021 981.979L524 994L519.021 1006.02L507 1011L494.979 1006.02L490 994L494.979 981.979L507 977Z" fill="#00FDE4"/>
<path d="M507 0L519.021 4.97919L524 17L519.021 29.0208L507 34L494.979 29.0208L490 17L494.979 4.97919L507 0Z" fill="#00FDE4"/>
<path d="M857 148L869.021 152.979L874 165L869.021 177.021L857 182L844.979 177.021L840 165L844.979 152.979L857 148Z" fill="#00FDE4"/>
<path d="M507.383 16.0761L507 15.9176L506.617 16.0761L160.135 159.594L159.752 159.752L159.594 160.135L16.0761 506.617L15.9176 507L16.0761 507.383L159.594 853.865L159.752 854.248L160.135 854.406L506.617 997.924L507 998.082L507.383 997.924L853.865 854.406L854.248 854.248L854.406 853.865L997.924 507.383L998.082 507L997.924 506.617L854.406 160.135L854.248 159.752L853.865 159.594L507.383 16.0761Z" stroke="#00FDE4" stroke-width="2"/>
<path d="M997 495L1009.02 499.979L1014 512L1009.02 524.021L997 529L984.979 524.021L980 512L984.979 499.979L997 495Z" fill="#00FDE4"/>
</svg>
