<svg width="461" height="328" viewBox="0 0 461 328" fill="none" xmlns="http://www.w3.org/2000/svg">
<g opacity="0.3">
<path d="M140.109 40.6803C142.559 39.6654 145.312 39.6654 147.763 40.6803L175.464 52.1547C177.915 53.1697 179.861 55.1164 180.876 57.5667L192.351 85.2684C193.366 87.7187 193.366 90.4718 192.351 92.922L180.876 120.624C179.861 123.074 177.915 125.021 175.464 126.036L147.763 137.51C145.312 138.525 142.559 138.525 140.109 137.51L112.407 126.036C109.957 125.021 108.01 123.074 106.995 120.624L95.5209 92.9221C94.506 90.4718 94.506 87.7187 95.5209 85.2684L106.995 57.5667C108.01 55.1164 109.957 53.1697 112.407 52.1547L140.109 40.6803Z" fill="#E5E4C3"/>
<path d="M47.109 79.6803C49.5592 78.6654 52.3123 78.6654 54.7626 79.6803L82.4643 91.1547C84.9146 92.1697 86.8613 94.1164 87.8763 96.5667L99.3507 124.268C100.366 126.719 100.366 129.472 99.3507 131.922L87.8763 159.624C86.8613 162.074 84.9146 164.021 82.4643 165.036L54.7626 176.51C52.3123 177.525 49.5592 177.525 47.109 176.51L19.4073 165.036C16.957 164.021 15.0103 162.074 13.9953 159.624L2.52092 131.922C1.50598 129.472 1.50598 126.719 2.52092 124.268L13.9953 96.5667C15.0103 94.1164 16.957 92.1697 19.4073 91.1547L47.109 79.6803Z" fill="#E5E4C3"/>
<path d="M274.109 95.6803C276.559 94.6654 279.312 94.6654 281.763 95.6803L309.464 107.155C311.915 108.17 313.861 110.116 314.876 112.567L326.351 140.268C327.366 142.719 327.366 145.472 326.351 147.922L314.876 175.624C313.861 178.074 311.915 180.021 309.464 181.036L281.763 192.51C279.312 193.525 276.559 193.525 274.109 192.51L246.407 181.036C243.957 180.021 242.01 178.074 240.995 175.624L229.521 147.922C228.506 145.472 228.506 142.719 229.521 140.268L240.995 112.567C242.01 110.116 243.957 108.17 246.407 107.155L274.109 95.6803Z" fill="#E5E4C3"/>
<path d="M220.109 228.68C222.559 227.665 225.312 227.665 227.763 228.68L255.464 240.155C257.915 241.17 259.861 243.116 260.876 245.567L272.351 273.268C273.366 275.719 273.366 278.472 272.351 280.922L260.876 308.624C259.861 311.074 257.915 313.021 255.464 314.036L227.763 325.51C225.312 326.525 222.559 326.525 220.109 325.51L192.407 314.036C189.957 313.021 188.01 311.074 186.995 308.624L175.521 280.922C174.506 278.472 174.506 275.719 175.521 273.268L186.995 245.567C188.01 243.116 189.957 241.17 192.407 240.155L220.109 228.68Z" fill="#E5E4C3"/>
<path d="M313.109 189.68C315.559 188.665 318.312 188.665 320.763 189.68L348.464 201.155C350.915 202.17 352.861 204.116 353.876 206.567L365.351 234.268C366.366 236.719 366.366 239.472 365.351 241.922L353.876 269.624C352.861 272.074 350.915 274.021 348.464 275.036L320.763 286.51C318.312 287.525 315.559 287.525 313.109 286.51L285.407 275.036C282.957 274.021 281.01 272.074 279.995 269.624L268.521 241.922C267.506 239.472 267.506 236.719 268.521 234.268L279.995 206.567C281.01 204.116 282.957 202.17 285.407 201.155L313.109 189.68Z" fill="#E5E4C3"/>
<path d="M234.109 1.68034C236.559 0.665403 239.312 0.665402 241.763 1.68034L269.464 13.1547C271.915 14.1697 273.861 16.1164 274.876 18.5667L286.351 46.2684C287.366 48.7187 287.366 51.4718 286.351 53.922L274.876 81.6237C273.861 84.074 271.915 86.0207 269.464 87.0357L241.763 98.5101C239.312 99.525 236.559 99.525 234.109 98.5101L206.407 87.0357C203.957 86.0207 202.01 84.074 200.995 81.6237L189.521 53.9221C188.506 51.4718 188.506 48.7187 189.521 46.2684L200.995 18.5667C202.01 16.1164 203.957 14.1697 206.407 13.1547L234.109 1.68034Z" fill="#E5E4C3"/>
<path d="M368.109 56.6803C370.559 55.6654 373.312 55.6654 375.763 56.6803L403.464 68.1547C405.915 69.1697 407.861 71.1164 408.876 73.5667L420.351 101.268C421.366 103.719 421.366 106.472 420.351 108.922L408.876 136.624C407.861 139.074 405.915 141.021 403.464 142.036L375.763 153.51C373.312 154.525 370.559 154.525 368.109 153.51L340.407 142.036C337.957 141.021 336.01 139.074 334.995 136.624L323.521 108.922C322.506 106.472 322.506 103.719 323.521 101.268L334.995 73.5667C336.01 71.1164 337.957 69.1697 340.407 68.1547L368.109 56.6803Z" fill="#E5E4C3"/>
<path d="M407.109 150.68C409.559 149.665 412.312 149.665 414.763 150.68L442.464 162.155C444.915 163.17 446.861 165.116 447.876 167.567L459.351 195.268C460.366 197.719 460.366 200.472 459.351 202.922L447.876 230.624C446.861 233.074 444.915 235.021 442.464 236.036L414.763 247.51C412.312 248.525 409.559 248.525 407.109 247.51L379.407 236.036C376.957 235.021 375.01 233.074 373.995 230.624L362.521 202.922C361.506 200.472 361.506 197.719 362.521 195.268L373.995 167.567C375.01 165.116 376.957 163.17 379.407 162.155L407.109 150.68Z" fill="#E5E4C3"/>
</g>
</svg>
