<svg width="590" height="590" viewBox="0 0 590 590" fill="none" xmlns="http://www.w3.org/2000/svg">
<path d="M284.285 4.60314C291.146 1.76131 298.854 1.76131 305.715 4.60314L492.765 82.0817C499.626 84.9235 505.077 90.3744 507.918 97.2352L585.397 284.285C588.239 291.146 588.239 298.854 585.397 305.715L507.918 492.765C505.077 499.626 499.626 505.077 492.765 507.918L305.715 585.397C298.854 588.239 291.146 588.239 284.285 585.397L97.2352 507.918C90.3744 505.077 84.9235 499.626 82.0817 492.765L4.60314 305.715C1.76131 298.854 1.76131 291.146 4.60314 284.285L82.0817 97.2352C84.9235 90.3744 90.3744 84.9235 97.2352 82.0817L284.285 4.60314Z" stroke="#6C57E2" stroke-width="4"/>
</svg>
