<svg width="464" height="464" viewBox="0 0 464 464" fill="none" xmlns="http://www.w3.org/2000/svg">
<path d="M221.285 4.60314C228.146 1.76131 235.854 1.76131 242.715 4.60314L385.217 63.6294C392.078 66.4712 397.529 71.9221 400.371 78.7829L459.397 221.285C462.239 228.146 462.239 235.854 459.397 242.715L400.371 385.217C397.529 392.078 392.078 397.529 385.217 400.371L242.715 459.397C235.854 462.239 228.146 462.239 221.285 459.397L78.7829 400.371C71.9221 397.529 66.4712 392.078 63.6294 385.217L4.60314 242.715C1.76131 235.854 1.76131 228.146 4.60314 221.285L63.6294 78.7829C66.4712 71.9221 71.9221 66.4712 78.7829 63.6294L221.285 4.60314Z" stroke="#00C8FF" stroke-width="4"/>
</svg>
