<svg width="478" height="245" viewBox="0 0 478 245" fill="none" xmlns="http://www.w3.org/2000/svg">
<g opacity="0.8">
<path d="M17 141.641L29.0208 146.406L34 157.91L29.0208 169.414L17 174.18L4.97919 169.414L0 157.91L4.97919 146.406L17 141.641Z" fill="#FF5555"/>
<path d="M91 70.8203L103.021 75.5855L108 87.0898L103.021 98.5941L91 103.359L78.9792 98.5941L74 87.0898L78.9792 75.5855L91 70.8203Z" fill="#FF5555"/>
<path d="M165 0L177.021 4.76523L182 16.2695L177.021 27.7738L165 32.5391L152.979 27.7738L148 16.2695L152.979 4.76523L165 0Z" fill="#FF5555"/>
<path d="M165 70.8203L177.021 75.5855L182 87.0898L177.021 98.5941L165 103.359L152.979 98.5941L148 87.0898L152.979 75.5855L165 70.8203Z" fill="#FF5555"/>
<path d="M239 0L251.021 4.76523L256 16.2695L251.021 27.7738L239 32.5391L226.979 27.7738L222 16.2695L226.979 4.76523L239 0Z" fill="#FF5555"/>
<path d="M239 70.8203L251.021 75.5855L256 87.0898L251.021 98.5941L239 103.359L226.979 98.5941L222 87.0898L226.979 75.5855L239 70.8203Z" fill="#FF5555"/>
<path d="M239 141.641L251.021 146.406L256 157.91L251.021 169.414L239 174.18L226.979 169.414L222 157.91L226.979 146.406L239 141.641Z" fill="#FF5555"/>
<path d="M239 212.461L251.021 217.226L256 228.73L251.021 240.235L239 245L226.979 240.235L222 228.73L226.979 217.226L239 212.461Z" fill="#FF5555"/>
<path d="M313 70.8203L325.021 75.5855L330 87.0898L325.021 98.5941L313 103.359L300.979 98.5941L296 87.0898L300.979 75.5855L313 70.8203Z" fill="#FF5555"/>
<path d="M313 141.641L325.021 146.406L330 157.91L325.021 169.414L313 174.18L300.979 169.414L296 157.91L300.979 146.406L313 141.641Z" fill="#FF5555"/>
<path d="M387 0L399.021 4.76523L404 16.2695L399.021 27.7738L387 32.5391L374.979 27.7738L370 16.2695L374.979 4.76523L387 0Z" fill="#FF5555"/>
<path d="M387 70.8203L399.021 75.5855L404 87.0898L399.021 98.5941L387 103.359L374.979 98.5941L370 87.0898L374.979 75.5855L387 70.8203Z" fill="#FF5555"/>
<path d="M461 0L473.021 4.76523L478 16.2695L473.021 27.7738L461 32.5391L448.979 27.7738L444 16.2695L448.979 4.76523L461 0Z" fill="#FF5555"/>
</g>
</svg>
