<svg width="256" height="478" viewBox="0 0 256 478" fill="none" xmlns="http://www.w3.org/2000/svg">
<g opacity="0.8">
<path d="M-7.43094e-07 461L4.97918 448.979L17 444L29.0208 448.979L34 461L29.0208 473.021L17 478L4.97918 473.021L-7.43094e-07 461Z" fill="#C1C09F"/>
<path d="M-7.43094e-07 387L4.97918 374.979L17 370L29.0208 374.979L34 387L29.0208 399.021L17 404L4.97918 399.021L-7.43094e-07 387Z" fill="#C1C09F"/>
<path d="M74 387L78.9792 374.979L91 370L103.021 374.979L108 387L103.021 399.021L91 404L78.9792 399.021L74 387Z" fill="#C1C09F"/>
<path d="M74 313L78.9792 300.979L91 296L103.021 300.979L108 313L103.021 325.021L91 330L78.9792 325.021L74 313Z" fill="#C1C09F"/>
<path d="M148 313L152.979 300.979L165 296L177.021 300.979L182 313L177.021 325.021L165 330L152.979 325.021L148 313Z" fill="#C1C09F"/>
<path d="M74 239L78.9792 226.979L91 222L103.021 226.979L108 239L103.021 251.021L91 256L78.9792 251.021L74 239Z" fill="#C1C09F"/>
<path d="M148 239L152.979 226.979L165 222L177.021 226.979L182 239L177.021 251.021L165 256L152.979 251.021L148 239Z" fill="#C1C09F"/>
<path d="M148 165L152.979 152.979L165 148L177.021 152.979L182 165L177.021 177.021L165 182L152.979 177.021L148 165Z" fill="#C1C09F"/>
<path d="M74 91L78.9792 78.9792L91 74L103.021 78.9792L108 91L103.021 103.021L91 108L78.9792 103.021L74 91Z" fill="#C1C09F"/>
<path d="M148 91L152.979 78.9792L165 74L177.021 78.9792L182 91L177.021 103.021L165 108L152.979 103.021L148 91Z" fill="#C1C09F"/>
<path d="M222 91L226.979 78.9792L239 74L251.021 78.9792L256 91L251.021 103.021L239 108L226.979 103.021L222 91Z" fill="#C1C09F"/>
<path d="M-7.43094e-07 17L4.97918 4.97918L17 -7.43094e-07L29.0208 4.97918L34 17L29.0208 29.0208L17 34L4.97918 29.0208L-7.43094e-07 17Z" fill="#C1C09F"/>
<path d="M74 17L78.9792 4.97918L91 -7.43094e-07L103.021 4.97918L108 17L103.021 29.0208L91 34L78.9792 29.0208L74 17Z" fill="#C1C09F"/>
<path d="M148 17L152.979 4.97918L165 -7.43094e-07L177.021 4.97918L182 17L177.021 29.0208L165 34L152.979 29.0208L148 17Z" fill="#C1C09F"/>
</g>
</svg>
