<svg width="478" height="256" viewBox="0 0 478 256" fill="none" xmlns="http://www.w3.org/2000/svg">
<g opacity="0.8">
<path d="M17 222L29.0208 226.979L34 239L29.0208 251.021L17 256L4.97919 251.021L0 239L4.97919 226.979L17 222Z" fill="#6C57E2"/>
<path d="M91 222L103.021 226.979L108 239L103.021 251.021L91 256L78.9792 251.021L74 239L78.9792 226.979L91 222Z" fill="#6C57E2"/>
<path d="M165 222L177.021 226.979L182 239L177.021 251.021L165 256L152.979 251.021L148 239L152.979 226.979L165 222Z" fill="#6C57E2"/>
<path d="M239 148L251.021 152.979L256 165L251.021 177.021L239 182L226.979 177.021L222 165L226.979 152.979L239 148Z" fill="#6C57E2"/>
<path d="M239 222L251.021 226.979L256 239L251.021 251.021L239 256L226.979 251.021L222 239L226.979 226.979L239 222Z" fill="#6C57E2"/>
<path d="M313 74L325.021 78.9792L330 91L325.021 103.021L313 108L300.979 103.021L296 91L300.979 78.9792L313 74Z" fill="#6C57E2"/>
<path d="M313 148L325.021 152.979L330 165L325.021 177.021L313 182L300.979 177.021L296 165L300.979 152.979L313 148Z" fill="#6C57E2"/>
<path d="M313 222L325.021 226.979L330 239L325.021 251.021L313 256L300.979 251.021L296 239L300.979 226.979L313 222Z" fill="#6C57E2"/>
<path d="M387 0L399.021 4.97919L404 17L399.021 29.0208L387 34L374.979 29.0208L370 17L374.979 4.97919L387 0Z" fill="#6C57E2"/>
<path d="M387 74L399.021 78.9792L404 91L399.021 103.021L387 108L374.979 103.021L370 91L374.979 78.9792L387 74Z" fill="#6C57E2"/>
<path d="M461 0L473.021 4.97919L478 17L473.021 29.0208L461 34L448.979 29.0208L444 17L448.979 4.97919L461 0Z" fill="#6C57E2"/>
<path d="M461 74L473.021 78.9792L478 91L473.021 103.021L461 108L448.979 103.021L444 91L448.979 78.9792L461 74Z" fill="#6C57E2"/>
<path d="M461 148L473.021 152.979L478 165L473.021 177.021L461 182L448.979 177.021L444 165L448.979 152.979L461 148Z" fill="#6C57E2"/>
</g>
</svg>
