<svg width="205" height="488" viewBox="0 0 205 488" fill="none" xmlns="http://www.w3.org/2000/svg">
<path fill-rule="evenodd" clip-rule="evenodd" d="M173.075 259.465L93.1757 459.662L87.2532 456.491L78.6977 453.194L74.4288 446.644L154.194 249.411L173.075 259.465Z" fill="#3B2344"/>
<path fill-rule="evenodd" clip-rule="evenodd" d="M173.038 259.1L121.912 386.655C121.912 386.655 121.741 386.577 121.668 386.543L131.111 319.395C133.338 313.178 137.047 305.317 139.273 299.1C139.771 296.915 143.227 297.531 147.13 298.558L155.856 252.976L173.05 259.047L173.038 259.1ZM121.517 387.68L92.6734 459.634L86.7176 456.457L78.1382 453.165L79.1316 444.881L105.041 380.115L111.929 381.217L121.541 387.692L121.517 387.68Z" fill="#533A5B"/>
<path fill-rule="evenodd" clip-rule="evenodd" d="M87.8101 455.966L90.9965 463.182L85.5011 465.563L75.1849 458.243L74.0828 451.141L78.1749 449.076L87.8101 455.966Z" fill="#3B2344"/>
<path fill-rule="evenodd" clip-rule="evenodd" d="M185.552 209.062C188.304 229.677 188.027 249.735 185.341 269.388C178.606 272.394 171.848 275.389 165.112 278.395C159.069 274.782 153.054 271.154 147.011 267.54C145.523 258.319 144.041 249.072 142.553 239.85C155.06 226.831 168.992 215.713 185.552 209.062Z" fill="#B6B0C7"/>
<path fill-rule="evenodd" clip-rule="evenodd" d="M171.906 240.646C174.663 261.288 186.447 249.694 183.762 269.347C177.015 272.357 170.245 275.356 163.498 278.366C164.346 274.492 165.129 264.913 164.746 259.855C163.255 250.621 165.35 254.325 163.865 245.066C176.389 232.055 155.322 247.279 171.912 240.62L171.906 240.646Z" fill="#C9C4D1"/>
<path fill-rule="evenodd" clip-rule="evenodd" d="M185.271 207.236C188.087 228.159 187.799 248.515 185.046 268.461C184.416 268.742 176.936 253.857 176.312 254.111C170.045 256.88 175.169 247.127 168.902 249.896C162.714 246.227 170.112 252.836 163.924 249.168C162.402 239.808 177.95 231.849 176.428 222.489C177.455 219.708 181.561 211.759 185.271 207.236V207.236Z" fill="white"/>
<path fill-rule="evenodd" clip-rule="evenodd" d="M154.553 242.192C156.056 253.384 179.225 246.302 156.81 256.298C152.696 259.338 148.358 267.608 146.987 269.342C145.522 260.247 144.063 251.127 142.598 242.032C147.335 241.367 151.466 240.301 154.553 242.192Z" fill="#998DA4"/>
<path fill-rule="evenodd" clip-rule="evenodd" d="M176.918 224.082C178.346 234.727 178.194 245.105 176.809 255.239C173.316 256.797 169.852 258.339 166.359 259.896C163.24 258.015 160.116 256.16 156.997 254.278C156.227 249.499 155.451 244.745 154.704 239.976C161.168 233.253 168.554 227.965 176.918 224.082Z" fill="#737799"/>
<path fill-rule="evenodd" clip-rule="evenodd" d="M147.425 266.804C153.456 266.534 161.4 271.096 164.962 278.409C165.788 280.09 165.455 281.606 165.23 282.186C164.447 284.312 163.767 286.185 162.951 288.24C162.337 289.815 160.253 289.87 159.822 289.611C160.113 288.843 160.491 287.897 160.451 287.522C160.033 282.988 148.808 273.716 143.711 277.172C143.343 278.068 143.228 278.37 142.993 278.999C142.324 278.271 142.368 275.959 142.576 275.345C143.305 273.358 143.884 271.053 144.414 269.081C144.622 268.357 145.159 266.91 147.375 266.808L147.425 266.804Z" fill="#96423E"/>
<path fill-rule="evenodd" clip-rule="evenodd" d="M147.417 266.87C148.155 266.836 148.926 266.873 149.73 266.98C148.824 268.003 146.342 271.32 148.576 272.68C156.765 276.641 159.994 279.678 163.177 284.145C163.459 284.525 163.905 284.599 164.274 284.802C163.847 285.969 163.404 287.102 162.944 288.309C162.331 289.881 160.249 289.936 159.819 289.677C160.109 288.911 160.487 287.966 160.447 287.591C160.029 283.065 148.815 273.807 143.723 277.257C143.356 278.152 143.241 278.454 143.005 279.082C142.337 278.355 142.382 276.047 142.589 275.433C143.317 273.449 143.896 271.148 144.426 269.179C144.633 268.456 145.17 267.011 147.384 266.909L147.417 266.87Z" fill="black"/>
<path fill-rule="evenodd" clip-rule="evenodd" d="M144.219 274.877C150.248 274.608 158.432 279.281 161.992 286.59C162.817 288.27 162.484 289.785 162.26 290.364C161.477 292.488 160.555 294.245 159.738 296.299C159.125 297.873 157.042 297.928 156.611 297.669C156.902 296.902 157.28 295.956 157.24 295.581C156.822 291.05 145.602 281.785 140.507 285.238C140.14 286.134 140.024 286.436 139.789 287.065C139.12 286.336 139.165 284.026 139.373 283.412C140.101 281.426 140.68 279.123 141.21 277.153C141.418 276.429 141.954 274.983 144.17 274.881L144.219 274.877Z" fill="#F5B800"/>
<path fill-rule="evenodd" clip-rule="evenodd" d="M144.215 274.945C144.953 274.911 145.746 274.958 146.551 275.065C145.03 277.112 144.838 279.87 145.426 281.738C149.529 283.791 153.575 285.434 157.161 290.064C158.376 291.626 159.382 293.034 160.854 293.759C160.476 294.594 160.092 295.453 159.747 296.358C159.134 297.931 157.052 297.986 156.622 297.727C156.912 296.96 157.29 296.016 157.251 295.641C156.832 291.114 145.619 281.857 140.526 285.307C140.16 286.202 140.045 286.504 139.809 287.132C139.141 286.405 139.185 284.097 139.393 283.483C140.121 281.499 140.7 279.198 141.229 277.23C141.437 276.506 141.973 275.061 144.187 274.96L144.215 274.945Z" fill="black"/>
<path fill-rule="evenodd" clip-rule="evenodd" d="M140.865 283.372C146.893 283.103 155.038 287.84 158.604 295.123C159.429 296.802 159.096 298.317 158.871 298.896C158.088 301.02 157.183 302.703 156.389 304.767C155.775 306.34 153.692 306.395 153.262 306.136C153.552 305.369 153.93 304.424 153.891 304.049C153.472 299.519 142.253 290.254 137.158 293.707C136.791 294.602 136.676 294.904 136.441 295.533C135.772 294.805 135.816 292.495 136.024 291.881C136.753 289.896 137.331 287.592 137.861 285.623C138.069 284.899 138.606 283.453 140.821 283.351L140.865 283.372Z" fill="#F5B800"/>
<path fill-rule="evenodd" clip-rule="evenodd" d="M140.861 283.421C141.819 283.382 142.827 283.449 143.874 283.671C143.949 284.884 141.711 289.084 142.643 289.717C145.733 291.838 152.17 296.12 154.604 300.451C155.654 302.319 156.541 302.054 157.976 301.172C157.445 302.372 156.902 303.512 156.398 304.808C155.785 306.38 153.703 306.435 153.273 306.176C153.563 305.41 153.941 304.466 153.901 304.091C153.483 299.564 142.27 290.307 137.178 293.758C136.811 294.652 136.696 294.954 136.461 295.582C135.793 294.855 135.837 292.547 136.045 291.933C136.773 289.95 137.351 287.648 137.881 285.68C138.089 284.957 138.625 283.512 140.839 283.411L140.861 283.421Z" fill="black"/>
<path fill-rule="evenodd" clip-rule="evenodd" d="M42.2483 27.5427L119.206 125.756L116.509 128.344L113.212 132.416L109.279 133.17L33.6763 35.8059L42.2483 27.5427Z" fill="#3B2344"/>
<path fill-rule="evenodd" clip-rule="evenodd" d="M42.1617 27.5059L91.1229 90.0954C91.1229 90.0954 91.0511 90.1734 91.0203 90.2068L61.6638 67.3002C59.2229 64.4021 56.3199 60.2238 53.8789 57.3257C52.9627 56.4711 53.9584 54.6449 55.2375 52.6687L35.7843 35.7881L42.1394 27.4851L42.1617 27.5059ZM91.5195 90.5895L119.138 125.898L116.436 128.495L113.143 132.569L109.485 129.842L84.6152 98.0904L86.5415 94.4185L91.5298 90.5784L91.5195 90.5895Z" fill="#533A5B"/>
<path fill-rule="evenodd" clip-rule="evenodd" d="M115.505 126.814L119.697 126.837L119.663 130.818L113.877 135.094L110.192 133.837L110.076 130.794L115.505 126.814Z" fill="#3B2344"/>
<path fill-rule="evenodd" clip-rule="evenodd" d="M22.12 7.77559C32.4788 11.5993 41.9302 17.0778 50.679 23.8818C50.6754 28.6847 50.6618 33.4984 50.6582 38.3013C47.6627 40.9393 44.6662 43.5564 41.6707 46.1943C36.9826 44.6365 32.2835 43.0685 27.5954 41.5107C24.0756 30.6216 21.7598 19.3888 22.12 7.77559Z" fill="#B6B0C7"/>
<path fill-rule="evenodd" clip-rule="evenodd" d="M34.3489 23.7661C44.7145 27.5919 41.7186 17.5188 50.4618 24.3174C50.4578 29.1243 50.4438 33.942 50.4398 38.749C48.7838 37.2194 44.4109 34.2181 41.933 33.107C37.2418 31.5483 39.4408 31.2841 34.7386 29.7152C31.2283 18.8276 33.9765 35.3789 34.3379 23.7559L34.3489 23.7661Z" fill="#C9C4D1"/>
<path fill-rule="evenodd" clip-rule="evenodd" d="M21.6682 7.61819C32.1034 11.4626 41.6214 16.982 50.429 23.843C50.429 24.2874 41.8567 24.7724 41.8456 25.2065C41.8341 29.6182 38.3198 24.0427 38.3083 28.4544C35.2846 31.1278 39.9455 28.5161 36.9218 31.1895C32.1988 29.6242 31.7138 18.3918 26.9908 16.8265C25.8975 15.4913 23.0182 10.9882 21.6682 7.61819V7.61819Z" fill="white"/>
<path fill-rule="evenodd" clip-rule="evenodd" d="M30.7227 34.6437C36.3884 36.7281 37.9612 20.9462 37.9414 37.0537C38.5131 40.3318 41.5343 45.1391 42.069 46.4242C37.4129 44.8761 32.7457 43.3178 28.0895 41.7696C28.7853 38.7514 29.1593 35.9903 30.7227 34.6437Z" fill="#998DA4"/>
<path fill-rule="evenodd" clip-rule="evenodd" d="M27.4171 16.8864C32.7678 18.8567 37.6564 21.6966 42.1677 25.205C42.1651 27.6955 42.1614 30.165 42.1587 32.6554C40.605 34.0124 39.0623 35.3796 37.5085 36.7366C35.0788 35.9284 32.6601 35.1304 30.2404 34.3115C28.4241 28.6853 27.4837 22.8909 27.4171 16.8864Z" fill="#737799"/>
<path fill-rule="evenodd" clip-rule="evenodd" d="M40.8286 44.9947C42.0002 41.2713 45.9187 37.6939 50.2209 37.5121C51.2112 37.4662 51.8718 38.0769 52.1033 38.3694C52.9611 39.4174 53.7195 40.3343 54.536 41.3834C55.1644 42.1801 54.7411 43.4564 54.523 43.6471C54.2147 43.264 53.8395 42.7798 53.6496 42.7023C51.3688 41.7317 44.4666 46.0232 45.036 50.0416C45.3896 50.5058 45.5107 50.657 45.7638 50.9695C45.2675 51.1777 44.1603 50.5269 43.9082 50.235C43.1055 49.2575 42.117 48.2848 41.2791 47.4317C40.9738 47.1103 40.3908 46.3947 40.8198 45.0257L40.8286 44.9947Z" fill="#96423E"/>
<path fill-rule="evenodd" clip-rule="evenodd" d="M40.843 45.0058C40.986 44.5497 41.1702 44.0925 41.3957 43.6343C41.6944 44.4595 42.7623 46.8589 43.9022 45.8733C47.5859 41.9844 49.7515 40.8492 52.5986 40.1283C52.8432 40.0603 52.9756 39.8101 53.1533 39.641C53.6256 40.215 54.0773 40.7896 54.5615 41.3941C55.1894 42.1903 54.7663 43.466 54.5483 43.6566C54.2403 43.2738 53.8653 42.7899 53.6756 42.7125C51.3966 41.7427 44.4988 46.0328 45.0674 50.0491C45.4207 50.513 45.5418 50.6641 45.7947 50.9764C45.2987 51.1845 44.1924 50.5342 43.9405 50.2425C43.1385 49.2657 42.1507 48.2936 41.3135 47.441C41.0085 47.1198 40.4259 46.4047 40.8548 45.0364L40.843 45.0058Z" fill="black"/>
<path fill-rule="evenodd" clip-rule="evenodd" d="M43.8657 48.8753C45.0371 45.1527 49.0625 41.46 53.3635 41.2779C54.3534 41.232 55.0138 41.8426 55.2452 42.135C56.1027 43.1827 56.7528 44.2153 57.569 45.2641C58.1972 46.0606 57.774 47.3366 57.556 47.5273C57.2478 47.1443 56.8727 46.6602 56.6828 46.5828C54.4028 45.6125 47.5025 49.9034 48.0715 53.9209C48.425 54.385 48.5461 54.5362 48.7991 54.8486C48.3029 55.0567 47.1961 54.4061 46.9441 54.1143C46.1417 53.1371 45.1535 52.1647 44.3159 51.3118C44.0107 50.9905 43.4279 50.2751 43.8569 48.9064L43.8657 48.8753Z" fill="#F5B800"/>
<path fill-rule="evenodd" clip-rule="evenodd" d="M43.881 48.8855C44.024 48.4294 44.218 47.9617 44.4435 47.5034C45.1046 48.9774 46.3968 49.8389 47.4268 49.9872C49.3055 48.0573 50.9739 46.0505 53.9868 45.13C55.0045 44.8159 55.9024 44.5872 56.5709 43.8914C56.8927 44.3459 57.2254 44.8103 57.5885 45.2637C58.2164 46.06 57.7933 47.3356 57.5753 47.5263C57.2673 47.1434 56.8924 46.6595 56.7026 46.5821C54.4236 45.6123 47.526 49.9024 48.0945 53.9186C48.4478 54.3826 48.5689 54.5337 48.8218 54.846C48.3258 55.0541 47.2195 54.4038 46.9676 54.1121C46.1656 53.1353 45.1779 52.1632 44.3407 51.3107C44.0357 50.9894 43.4531 50.2743 43.882 48.906L43.881 48.8855Z" fill="black"/>
<path fill-rule="evenodd" clip-rule="evenodd" d="M47.0646 52.9482C48.2359 49.2257 52.2839 45.5737 56.5737 45.3816C57.5636 45.3357 58.224 45.9462 58.4553 46.2385C59.3128 47.2863 59.9304 48.2887 60.7564 49.327C61.3845 50.1234 60.9613 51.3994 60.7433 51.5901C60.4352 51.2071 60.0601 50.723 59.8702 50.6456C57.5903 49.6754 50.6903 53.9662 51.2593 57.9835C51.6128 58.4476 51.7339 58.5988 51.9869 58.9112C51.4907 59.1193 50.384 58.4688 50.132 58.177C49.3296 57.1998 48.3415 56.2274 47.5039 55.3746C47.1988 55.0533 46.616 54.3379 47.0449 52.9693L47.0646 52.9482Z" fill="#F5B800"/>
<path fill-rule="evenodd" clip-rule="evenodd" d="M47.0755 52.956C47.2635 52.3651 47.5134 51.7725 47.8469 51.1985C48.4496 51.4812 49.9971 53.9709 50.5047 53.5774C52.1974 52.2795 55.6582 49.5378 58.2777 49.2341C59.4076 49.1022 59.4708 48.4939 59.3546 47.3864C59.8201 48.0325 60.2542 48.6692 60.7718 49.3243C61.3996 50.1205 60.9765 51.3961 60.7586 51.5867C60.4506 51.2039 60.0757 50.72 59.8859 50.6426C57.607 49.6729 50.7095 53.9629 51.2781 57.979C51.6314 58.443 51.7524 58.5941 52.0053 58.9064C51.5093 59.1145 50.4031 58.4642 50.1512 58.1725C49.3492 57.1957 48.3615 56.2236 47.5243 55.3711C47.2193 55.0499 46.6368 54.3348 47.0657 52.9665L47.0755 52.956Z" fill="black"/>
</svg>
