<svg width="265" height="167" viewBox="0 0 265 167" fill="none" xmlns="http://www.w3.org/2000/svg">
<path fill-rule="evenodd" clip-rule="evenodd" d="M212.393 116.93L222.675 107.677L254.761 154.586C257.444 158.506 247.271 167.917 244.479 163.839L212.393 116.93Z" fill="#3B2344"/>
<path fill-rule="evenodd" clip-rule="evenodd" d="M160.223 65.1613C161.984 49.255 161.541 33.1628 159.724 16.9553C171.767 24.6854 184.166 30.227 196.769 34.3425C199.386 47.6017 211.413 67.1972 225.378 88.0928C217.05 95.8467 208.722 103.601 200.394 111.354C186.983 92.2908 173.584 73.7855 160.204 65.1581L160.223 65.1613Z" fill="#B6B0C7"/>
<path fill-rule="evenodd" clip-rule="evenodd" d="M160.245 65.3981C162.015 49.4136 161.569 33.2424 159.743 16.9553C169.1 35.3259 175.34 52.3562 188.003 56.4919C190.632 69.8162 202.293 76.1823 216.325 97.1804C207.957 104.972 208.978 104.026 200.609 111.818C187.134 92.6607 173.67 74.0646 160.226 65.3948L160.245 65.3981Z" fill="#D4D9DE"/>
<path fill-rule="evenodd" clip-rule="evenodd" d="M161.289 65.1594C163.051 49.2537 162.607 33.1621 160.79 16.9552C172.833 24.6851 185.232 30.2265 197.834 34.3418C198.431 37.3396 196.099 43.1127 193.751 46.3796C189.135 52.8343 184.117 63.2777 174.559 62.5492C173.031 62.4309 162.722 66.0728 161.289 65.1594Z" fill="#D4D9DE"/>
<path fill-rule="evenodd" clip-rule="evenodd" d="M161.341 65.8623C163.136 49.7248 162.684 33.3986 160.834 16.9554C166.18 23.5199 172.101 33.8259 174.742 37.7731C174.791 37.9929 193.607 64.6195 174.86 63.215C173.303 63.0948 162.801 66.7891 161.341 65.8623Z" fill="white"/>
<path fill-rule="evenodd" clip-rule="evenodd" d="M173.183 62.5335C174.137 54.2578 173.97 45.8859 173.067 37.4597C179.345 41.437 185.813 44.2644 192.374 46.3426C193.699 53.2406 212.423 82.2818 219.659 93.0954C215.293 97.1578 210.907 101.217 206.54 105.302C199.588 95.4407 180.139 66.9495 173.183 62.5335Z" fill="#737799"/>
<path fill-rule="evenodd" clip-rule="evenodd" d="M191.179 115.743L230.747 78.4288L240.981 96.4043L203.482 131.754L191.179 115.743Z" fill="#655B7F"/>
<path fill-rule="evenodd" clip-rule="evenodd" d="M191.558 115.68L231.084 78.4199L231.49 83.7519L196.552 116.105L191.558 115.68Z" fill="#8C80A8"/>
<path fill-rule="evenodd" clip-rule="evenodd" d="M59.9337 40.3938L52.0502 36.9101L68.6814 3.46426C70.0709 0.66822 78.0096 4.03911 76.5649 6.948L59.9337 40.3938Z" fill="#3B2344"/>
<path fill-rule="evenodd" clip-rule="evenodd" d="M48.5381 88.1303C39.4188 91.7896 30.8082 96.8391 22.5147 102.754C23.3805 93.1666 22.9602 84.0139 21.7098 75.1617C28.1822 69.6385 35.492 56.5361 42.9714 41.8737C49.4817 44.6118 55.992 47.35 62.5023 50.0881C55.8638 63.8707 49.525 77.4798 48.5416 88.1429L48.5381 88.1303Z" fill="#B6B0C7"/>
<path fill-rule="evenodd" clip-rule="evenodd" d="M48.6617 88.1351C39.5448 91.7909 30.9364 96.8356 22.6451 102.745C29.9899 91.687 37.4685 82.9012 36.2182 74.0572C42.6889 68.5392 42.9188 59.6401 50.3961 44.9914C56.9047 47.7271 56.1132 47.3924 62.6218 50.1281C55.9852 63.8979 49.6482 77.4944 48.6652 88.1477L48.6617 88.1351Z" fill="#D4D9DE"/>
<path fill-rule="evenodd" clip-rule="evenodd" d="M48.9593 87.7513C39.84 91.4107 31.2294 96.4602 22.9359 102.375C23.8017 92.7877 23.3814 83.6349 22.1309 74.7826C23.5931 73.531 27.3707 73.227 29.793 73.6783C34.5722 74.5551 41.6273 74.4902 43.8743 80.4933C44.2327 81.4538 49.059 86.6126 48.9593 87.7513Z" fill="#D4D9DE"/>
<path fill-rule="evenodd" clip-rule="evenodd" d="M49.1502 87.8014C40.0389 91.4405 31.4373 96.4665 23.1533 102.356C25.2083 97.2729 29.1067 90.7588 30.4981 88.042C30.6023 87.949 39.7175 69.0321 44.0616 80.5572C44.4206 81.5155 49.2488 86.6659 49.1502 87.8014Z" fill="white"/>
<path fill-rule="evenodd" clip-rule="evenodd" d="M43.3243 80.9779C38.5686 82.8593 34.0708 85.4483 29.7469 88.4987C30.17 83.5158 29.9163 78.7594 29.2301 74.1689C32.608 71.3173 43.1942 51.3511 47.0629 43.7565C50.4751 45.1932 53.8909 46.6426 57.316 48.0731C53.8851 55.2122 43.798 75.454 43.3243 80.9779Z" fill="#737799"/>
<path fill-rule="evenodd" clip-rule="evenodd" d="M66.2041 53.8939L34.9332 40.9938L41.879 29.4258L71.5078 41.655L66.2041 53.8939Z" fill="#655B7F"/>
<path fill-rule="evenodd" clip-rule="evenodd" d="M66.3475 53.7588L35.0734 40.8532L37.8667 39.0153L65.1934 50.5971L66.3475 53.7588Z" fill="#8C80A8"/>
</svg>
