<svg width="256" height="478" viewBox="0 0 256 478" fill="none" xmlns="http://www.w3.org/2000/svg">
<g opacity="0.8">
<path d="M148 461L152.979 448.979L165 444L177.021 448.979L182 461L177.021 473.021L165 478L152.979 473.021L148 461Z" fill="#66E9FF"/>
<path d="M148 387L152.979 374.979L165 370L177.021 374.979L182 387L177.021 399.021L165 404L152.979 399.021L148 387Z" fill="#66E9FF"/>
<path d="M222 387L226.979 374.979L239 370L251.021 374.979L256 387L251.021 399.021L239 404L226.979 399.021L222 387Z" fill="#66E9FF"/>
<path d="M74 313L78.9792 300.979L91 296L103.021 300.979L108 313L103.021 325.021L91 330L78.9792 325.021L74 313Z" fill="#66E9FF"/>
<path d="M148 313L152.979 300.979L165 296L177.021 300.979L182 313L177.021 325.021L165 330L152.979 325.021L148 313Z" fill="#66E9FF"/>
<path d="M222 313L226.979 300.979L239 296L251.021 300.979L256 313L251.021 325.021L239 330L226.979 325.021L222 313Z" fill="#66E9FF"/>
<path d="M74 239L78.9792 226.979L91 222L103.021 226.979L108 239L103.021 251.021L91 256L78.9792 251.021L74 239Z" fill="#66E9FF"/>
<path d="M148 239L152.979 226.979L165 222L177.021 226.979L182 239L177.021 251.021L165 256L152.979 251.021L148 239Z" fill="#66E9FF"/>
<path d="M-7.43094e-07 165L4.97918 152.979L17 148L29.0208 152.979L34 165L29.0208 177.021L17 182L4.97918 177.021L-7.43094e-07 165Z" fill="#66E9FF"/>
<path d="M74 165L78.9792 152.979L91 148L103.021 152.979L108 165L103.021 177.021L91 182L78.9792 177.021L74 165Z" fill="#66E9FF"/>
<path d="M-3.12607e-05 91L4.97915 78.9792L17 74L29.0208 78.9792L34 91L29.0208 103.021L17 108L4.97915 103.021L-3.12607e-05 91Z" fill="#66E9FF"/>
<path d="M74 91L78.9792 78.9792L91 74L103.021 78.9792L108 91L103.021 103.021L91 108L78.9792 103.021L74 91Z" fill="#66E9FF"/>
<path d="M74 17L78.9792 4.97918L91 -7.43094e-07L103.021 4.97918L108 17L103.021 29.0208L91 34L78.9792 29.0208L74 17Z" fill="#66E9FF"/>
</g>
</svg>
