<svg width="478" height="256" viewBox="0 0 478 256" fill="none" xmlns="http://www.w3.org/2000/svg">
<path d="M17 74L29.0208 78.9792L34 91L29.0208 103.021L17 108L4.97919 103.021L0 91L4.97919 78.9792L17 74Z" fill="#FF9E5A" fill-opacity="0.8"/>
<path d="M91 74L103.021 78.9792L108 91L103.021 103.021L91 108L78.9792 103.021L74 91L78.9792 78.9792L91 74Z" fill="#FF9E5A" fill-opacity="0.8"/>
<path d="M91 148L103.021 152.979L108 165L103.021 177.021L91 182L78.9792 177.021L74 165L78.9792 152.979L91 148Z" fill="#FF9E5A" fill-opacity="0.8"/>
<path d="M165 0L177.021 4.97919L182 17L177.021 29.0208L165 34L152.979 29.0208L148 17L152.979 4.97919L165 0Z" fill="#FF9E5A" fill-opacity="0.8"/>
<path d="M165 74L177.021 78.9792L182 91L177.021 103.021L165 108L152.979 103.021L148 91L152.979 78.9792L165 74Z" fill="#FF9E5A" fill-opacity="0.8"/>
<path d="M165 148L177.021 152.979L182 165L177.021 177.021L165 182L152.979 177.021L148 165L152.979 152.979L165 148Z" fill="#FF9E5A" fill-opacity="0.8"/>
<path d="M165 222L177.021 226.979L182 239L177.021 251.021L165 256L152.979 251.021L148 239L152.979 226.979L165 222Z" fill="#FF9E5A" fill-opacity="0.8"/>
<path d="M239 0L251.021 4.97919L256 17L251.021 29.0208L239 34L226.979 29.0208L222 17L226.979 4.97919L239 0Z" fill="#FF9E5A" fill-opacity="0.8"/>
<path d="M239 74L251.021 78.9792L256 91L251.021 103.021L239 108L226.979 103.021L222 91L226.979 78.9792L239 74Z" fill="#FF9E5A" fill-opacity="0.8"/>
<path d="M239 148L251.021 152.979L256 165L251.021 177.021L239 182L226.979 177.021L222 165L226.979 152.979L239 148Z" fill="#FF9E5A" fill-opacity="0.8"/>
<path d="M239 222L251.021 226.979L256 239L251.021 251.021L239 256L226.979 251.021L222 239L226.979 226.979L239 222Z" fill="#FF9E5A" fill-opacity="0.8"/>
<path d="M313 0L325.021 4.97919L330 17L325.021 29.0208L313 34L300.979 29.0208L296 17L300.979 4.97919L313 0Z" fill="#FF9E5A" fill-opacity="0.8"/>
<path d="M313 74L325.021 78.9792L330 91L325.021 103.021L313 108L300.979 103.021L296 91L300.979 78.9792L313 74Z" fill="#FF9E5A" fill-opacity="0.8"/>
<path d="M313 222L325.021 226.979L330 239L325.021 251.021L313 256L300.979 251.021L296 239L300.979 226.979L313 222Z" fill="#FF9E5A" fill-opacity="0.8"/>
<path d="M387 0L399.021 4.97919L404 17L399.021 29.0208L387 34L374.979 29.0208L370 17L374.979 4.97919L387 0Z" fill="#FF9E5A" fill-opacity="0.8"/>
<path d="M387 222L399.021 226.979L404 239L399.021 251.021L387 256L374.979 251.021L370 239L374.979 226.979L387 222Z" fill="#FF9E5A" fill-opacity="0.8"/>
<path d="M461 0L473.021 4.97919L478 17L473.021 29.0208L461 34L448.979 29.0208L444 17L448.979 4.97919L461 0Z" fill="#FF9E5A" fill-opacity="0.8"/>
<path d="M461 222L473.021 226.979L478 239L473.021 251.021L461 256L448.979 251.021L444 239L448.979 226.979L461 222Z" fill="#FF9E5A" fill-opacity="0.8"/>
</svg>
