<svg width="349" height="265" viewBox="0 0 349 265" fill="none" xmlns="http://www.w3.org/2000/svg">
<path fill-rule="evenodd" clip-rule="evenodd" d="M114.407 76.5327C117.379 78.4132 124.465 88.84 124.4 92.8565C124.325 98.6937 110.77 110.222 106.638 112.224C102.127 114.398 99.2948 114.154 94.2046 112.334C89.1145 110.514 80.0649 105.343 76.4129 103.731C72.761 102.118 71.4188 103.104 70.4122 103.857C60.3374 111.242 30.1849 142.435 22.4118 151.567C14.0116 161.443 14.6197 162.376 14.5657 163.59C14.5118 164.804 13.7869 166.265 12.5157 166.869C11.2357 167.493 9.37392 167.232 7.8925 165.927C6.41109 164.622 5.30115 162.293 5.77133 159.298C6.24152 156.303 8.30068 152.622 9.43184 150.655C10.563 148.688 10.7397 148.388 19.6246 139.403C28.5094 130.418 46.1024 112.748 56.2937 103.187C66.4851 93.6255 69.2659 92.1925 72.7956 92.3463C76.3252 92.5001 80.2499 95.1689 84.8546 97.079C95.0522 101.278 98.9494 105.045 104.432 102.145C106.992 100.788 110.64 96.475 111.49 93.1995C111.986 91.2888 110.761 89.2806 109.458 85.3839C108.648 82.904 108.421 80.1089 109.288 78.1562C110.154 76.2036 112.114 75.0935 114.398 76.5531L114.407 76.5327Z" fill="#0D0D0D"/>
<path fill-rule="evenodd" clip-rule="evenodd" d="M123.159 88.9024L122.147 89.565C121.531 89.9612 121.126 90.1391 120.458 90.3859C119.974 90.6933 119.49 90.8919 118.944 91.0702L115.671 92.1948L111.967 93.2866L111.255 93.581C110.223 96.7872 106.781 100.803 104.352 102.088C99.2216 104.803 95.4684 101.664 86.6142 97.8058L86.7721 98.3086C87.7634 101.441 87.4706 104.618 86.2284 106.954C88.9269 109.225 91.7485 111.427 94.1578 112.305C99.2315 114.12 102.072 114.377 106.551 112.195C110.669 110.198 124.18 98.6999 124.256 92.878C124.265 91.8782 123.835 90.4852 123.15 88.9229L123.159 88.9024ZM72.1157 101.383L68.8332 92.8094C66.3428 94.1834 64.3537 95.6988 56.3698 103.182C50.9297 108.298 40.0317 119.061 30.8413 128.254C33.2745 132.117 33.8278 133.17 37.1506 135.623C49.2113 122.925 64.828 107.198 72.1157 101.383ZM24.1166 144.548C24.9851 136.67 20.7095 137.73 19.0803 140.04C10.9374 148.271 10.7613 148.571 9.6426 150.513C7.23787 154.729 10.4806 158.291 12.4685 158.244C15.767 158.147 19.4932 151.355 20.5761 150.094C21.9936 148.438 23.833 147.106 24.1078 144.569L24.1166 144.548Z" fill="#474C6E"/>
<path fill-rule="evenodd" clip-rule="evenodd" d="M134.649 75.329L138.469 70.8602L139.106 53.1282L130.106 43.1724L94.8238 77.0427L100.65 85.3655L104.384 88.5712L134.649 75.329Z" fill="#FFC909"/>
<path fill-rule="evenodd" clip-rule="evenodd" d="M131.641 70.9649L132.16 63.4997L133.595 46.7193L130.349 43.1261L98.933 72.3663L101.503 82.6474L105.943 84.7295L131.641 70.9649Z" fill="#FFDB12"/>
<path fill-rule="evenodd" clip-rule="evenodd" d="M134.116 75.6836L137.886 71.2703L130.676 68.3624L120.892 58.5328L94.8064 77.3765L100.558 85.5958L104.243 88.7617L134.116 75.6836Z" fill="#DE902F"/>
<path fill-rule="evenodd" clip-rule="evenodd" d="M134.11 75.635L137.886 71.2141L130.664 68.3011L120.864 58.4545L98.2332 73.9847L102.271 77.9069L104.188 88.7358L134.11 75.635Z" fill="#CC8125"/>
<path fill-rule="evenodd" clip-rule="evenodd" d="M134.11 75.635L137.886 71.2141L130.664 68.3011L120.864 58.4545L98.2332 73.9847L102.271 77.9069L104.188 88.7358L106.036 87.9317L105.452 80.6568L108.073 78.0046L124.479 70.5942L132.15 76.4864L134.11 75.635Z" fill="#BD742C"/>
<path fill-rule="evenodd" clip-rule="evenodd" d="M134.587 74.6358L138.338 70.2476L128.725 59.3939L124.678 46.379L106.815 63.7534L118.145 61.6359L125.421 64.6604L134.587 74.6358Z" fill="#FFEE1B"/>
<path fill-rule="evenodd" clip-rule="evenodd" d="M129.262 60.1943L130.701 43.4342L119.113 41.4361L95.9734 68.5248L95.0893 77.5581L102.783 78.1452L125.866 65.5977L129.262 60.1943Z" fill="#F5B800"/>
<path fill-rule="evenodd" clip-rule="evenodd" d="M109.514 64.7285L104.81 59.1634L95.9783 69.4886L95.0928 78.5324L106.495 69.6922L109.059 67.9124L109.514 64.7285Z" fill="#CC8125"/>
<path fill-rule="evenodd" clip-rule="evenodd" d="M109.981 66.777C108.919 63.4695 100.659 53.1587 97.121 52.5586C91.967 51.6927 78.0509 66.3834 75.6635 70.8219C71.7027 78.1593 78.5463 96.9782 80.2893 106.018C81.1518 110.503 80.0762 111.871 79.2808 112.925C71.2367 123.293 39.2245 152.831 30.0095 160.251C20.0266 168.276 19.3142 167.427 18.24 167.298C17.1658 167.169 15.7841 167.747 15.0425 169.121C14.301 170.494 14.2448 172.669 15.1639 174.591C16.0829 176.514 17.9772 178.185 20.6855 178.15C23.4029 178.095 26.9343 176.333 28.84 175.379C30.7547 174.405 31.0347 174.259 40.2781 165.501C49.5395 156.758 67.7642 139.459 77.713 129.301C87.6798 119.157 89.3526 116.195 89.7536 112.122C90.1546 108.049 88.3808 103.06 87.411 97.4396C85.2468 85.0005 82.93 81.4816 86.3117 75.6415C87.885 72.9088 91.8438 67.8429 94.8504 67.3986C96.62 67.1447 98.1892 68.8996 101.428 71.0171C103.485 72.369 103.566 73.2899 105.426 72.6063C107.286 71.9227 111.025 70.0707 109.954 66.784L109.981 66.777Z" fill="#0D0D0D"/>
<path fill-rule="evenodd" clip-rule="evenodd" d="M110.007 65.3903C108.955 62.1032 100.776 51.8564 97.2727 51.2603C92.1694 50.4 80.7426 64.2448 78.3789 68.6562C72.7114 79.2091 88.8753 106.689 84.0072 112.98C83.1302 114.124 81.9222 115.539 80.4637 117.201C81.3738 119.167 81.8993 121.307 81.951 123.44C88.4019 116.519 89.6735 113.859 89.9983 110.417C90.3952 106.369 88.6386 101.411 87.6781 95.8246C85.5347 83.4622 83.2405 79.9651 86.5887 74.1607C88.1464 71.4447 94.3663 62.8587 97.3344 62.4377C98.9346 62.2062 103.916 70.0528 106.097 69.2484C107.939 68.5689 111.05 68.643 109.989 65.3766L110.007 65.3903Z" fill="#474C6E"/>
<path d="M86.3302 109.497C89.9982 107.997 91.8399 102.967 90.4435 98.2625C89.0472 93.5584 84.9417 90.9617 81.2736 92.4625C77.6055 93.9633 75.7639 98.9933 77.1602 103.697C78.5566 108.401 82.6621 110.998 86.3302 109.497Z" fill="#62678B"/>
<path d="M85.3515 105.729C87.1618 104.988 88.0698 102.503 87.3797 100.178C86.6896 97.8532 84.6627 96.569 82.8524 97.3097C81.0421 98.0503 80.1341 100.535 80.8242 102.86C81.5143 105.185 83.5412 106.469 85.3515 105.729Z" fill="#0D0D0D"/>
<path fill-rule="evenodd" clip-rule="evenodd" d="M107.076 60.2447C106.188 58.497 99.9796 52.0207 99.3443 52.3933C98.7089 52.7658 98.0904 53.2554 99.511 55.3335C100.932 57.4116 105.549 63.1895 106.184 62.817C106.82 62.4444 107.989 61.9859 107.101 60.2382L107.076 60.2447Z" fill="#7E83A9"/>
<path fill-rule="evenodd" clip-rule="evenodd" d="M26.7112 174.81C30.6866 172.526 33.0221 169.765 34.6376 167.86C40.5991 160.916 34.0479 159.638 28.3253 163.97C21.0141 169.493 20.7949 169.46 18.1371 169.501C15.4792 169.543 16.3782 175.097 18.7983 176.095C21.6744 177.281 21.5073 177.777 26.72 174.79L26.7112 174.81Z" fill="#474C6E"/>
<path fill-rule="evenodd" clip-rule="evenodd" d="M280.989 183.223C282.186 181.622 287.981 178.579 289.963 179.143C292.843 179.951 297.328 189.873 297.947 192.701C298.617 195.786 298.242 197.514 296.884 200.438C295.526 203.363 292.154 208.31 291.028 210.368C289.902 212.426 290.269 213.388 290.551 214.112C293.299 221.332 306.02 244.128 309.839 250.146C313.97 256.651 314.486 256.395 315.081 256.587C315.677 256.779 316.335 257.419 316.519 258.288C316.713 259.164 316.416 260.287 315.638 261.037C314.859 261.787 313.607 262.173 312.168 261.49C310.728 260.808 309.092 259.049 308.221 258.09C307.349 257.131 307.217 256.982 303.571 250.292C299.924 243.602 292.765 230.371 288.951 222.794C285.137 215.217 284.678 213.303 285.071 211.131C285.465 208.959 287.138 206.869 288.497 204.257C291.491 198.47 293.704 196.541 292.763 192.757C292.321 190.99 290.516 188.162 288.972 187.207C288.071 186.65 286.967 187.149 284.923 187.45C283.623 187.63 282.22 187.407 281.332 186.614C280.444 185.822 280.071 184.459 280.998 183.231L280.989 183.223Z" fill="#0D0D0D"/>
<path fill-rule="evenodd" clip-rule="evenodd" d="M287.899 179.352L288.136 180.068C288.277 180.503 288.329 180.778 288.391 181.226C288.5 181.568 288.554 181.895 288.594 182.257L288.856 184.441L289.063 186.888L289.145 187.37C290.641 188.431 292.32 191.097 292.738 192.776C293.621 196.323 291.728 198.249 289.019 203.255L289.283 203.223C290.924 203.015 292.472 203.612 293.517 204.69C294.885 203.307 296.23 201.838 296.882 200.454C298.238 197.533 298.622 195.799 297.944 192.727C297.325 189.904 292.845 179.995 289.968 179.188C289.473 179.052 288.744 179.138 287.909 179.36L287.899 179.352ZM289.486 212.744L284.943 213.668C285.399 215.397 285.971 216.832 288.959 222.777C291.004 226.831 295.355 235.017 299.083 241.936C301.216 240.927 301.787 240.72 303.301 238.972C298.096 229.809 291.711 218.038 289.486 212.744ZM306.55 248.248C302.725 246.679 302.865 249.478 303.862 250.794C307.208 256.935 307.34 257.084 308.201 258.034C310.074 260.081 312.13 258.528 312.286 257.285C312.535 255.219 309.506 252.014 308.979 251.175C308.285 250.077 307.791 248.759 306.559 248.256L306.55 248.248Z" fill="#474C6E"/>
<path fill-rule="evenodd" clip-rule="evenodd" d="M283.454 171.095L281.581 168.131L272.842 165.416L267.091 169.724L280.712 196.14L285.366 193.597L287.294 191.688L283.454 171.095Z" fill="#FFC909"/>
<path fill-rule="evenodd" clip-rule="evenodd" d="M280.979 172.481L277.333 171.186L269.164 168.108L267.095 169.656L278.733 192.973L284.048 192.717L285.477 190.231L280.979 172.481Z" fill="#FFDB12"/>
<path fill-rule="evenodd" clip-rule="evenodd" d="M283.501 171.261L281.639 168.313L279.531 172.457L273.731 177.306L280.776 196.164L285.405 193.636L287.321 191.738L283.501 171.261Z" fill="#DE902F"/>
<path fill-rule="evenodd" clip-rule="evenodd" d="M283.49 171.26L281.626 168.31L279.517 172.457L273.712 177.309L279.41 193.547L281.734 191.529L287.313 191.752L283.49 171.26Z" fill="#CC8125"/>
<path fill-rule="evenodd" clip-rule="evenodd" d="M283.49 171.26L281.626 168.31L279.517 172.457L273.712 177.309L279.41 193.547L281.734 191.529L287.313 191.752L287.079 190.487L283.395 189.896L282.31 187.903L280.1 176.638L283.737 172.602L283.49 171.26Z" fill="#BD742C"/>
<path fill-rule="evenodd" clip-rule="evenodd" d="M283.305 171.071L281.448 168.13L275.132 172.749L268.24 173.578L275.321 187.121L275.292 179.707L277.471 175.525L283.305 171.071Z" fill="#FFEE1B"/>
<path fill-rule="evenodd" clip-rule="evenodd" d="M275.33 172.653L267.18 169.579L265.153 176.504L276.458 194.376L280.841 196.1L281.821 191.407L277.694 175.462L275.33 172.653Z" fill="#F5B800"/>
<path fill-rule="evenodd" clip-rule="evenodd" d="M275.524 185.43L272.355 187.62L276.661 194.434L281.046 196.159L277.704 187.946L277.055 186.126L275.524 185.43Z" fill="#CC8125"/>
<path fill-rule="evenodd" clip-rule="evenodd" d="M275.867 185.248C274.151 185.472 268.362 189.207 267.754 191.3C266.872 194.35 272.839 204.783 274.803 206.821C278.048 210.198 287.882 208.431 292.469 208.529C294.744 208.579 295.319 209.415 295.765 210.04C300.134 216.313 311.773 239.764 314.593 246.375C317.641 253.535 317.161 253.862 317.002 254.504C316.844 255.147 317.005 256.069 317.612 256.701C318.219 257.333 319.281 257.649 320.305 257.333C321.329 257.018 322.317 256.072 322.54 254.406C322.754 252.732 322.204 250.338 321.906 249.046C321.598 247.746 321.551 247.555 318.078 240.754C314.614 233.944 307.751 220.531 303.654 213.116C299.566 205.692 298.263 204.284 296.301 203.512C294.34 202.74 291.737 203.184 288.895 203.053C282.605 202.773 280.674 203.74 278.111 200.912C276.911 199.594 274.779 196.511 274.828 194.609C274.86 193.491 275.86 192.755 277.186 191.042C278.031 189.955 278.49 190.024 278.32 188.795C278.15 187.565 277.574 185.033 275.868 185.265L275.867 185.248Z" fill="#0D0D0D"/>
<path fill-rule="evenodd" clip-rule="evenodd" d="M275.587 185.157C273.876 185.38 268.104 189.096 267.498 191.179C266.619 194.215 272.411 203.057 274.371 205.087C279.057 209.95 294.022 203.543 296.682 207.361C297.167 208.05 297.755 208.979 298.443 210.094C299.492 209.787 300.591 209.741 301.646 209.985C298.816 205.11 297.621 203.981 295.956 203.334C293.999 202.564 291.403 203.005 288.569 202.873C282.295 202.593 280.369 203.554 277.812 200.737C276.615 199.424 272.945 194.475 273.003 192.59C273.032 191.573 277.337 189.518 277.136 188.068C276.966 186.844 277.281 184.935 275.579 185.166L275.587 185.157Z" fill="#474C6E"/>
<path d="M295.102 205.184C294.712 202.634 292.443 200.802 290.035 201.091C287.626 201.38 285.991 203.681 286.381 206.231C286.771 208.78 289.04 210.613 291.448 210.324C293.857 210.035 295.493 207.733 295.102 205.184Z" fill="#62678B"/>
<path d="M293.198 205.322C293.005 204.063 291.884 203.159 290.694 203.302C289.504 203.445 288.695 204.581 288.888 205.839C289.08 207.097 290.201 208.001 291.392 207.859C292.582 207.716 293.391 206.58 293.198 205.322Z" fill="#0D0D0D"/>
<path fill-rule="evenodd" clip-rule="evenodd" d="M273.14 186.497C272.171 186.827 268.311 189.909 268.441 190.363C268.572 190.817 268.764 191.276 269.95 190.651C271.136 190.025 274.495 187.862 274.364 187.408C274.233 186.954 274.108 186.149 273.139 186.48L273.14 186.497Z" fill="#7E83A9"/>
<path fill-rule="evenodd" clip-rule="evenodd" d="M320.841 250.016C320.066 247.24 318.907 245.423 318.108 244.167C315.2 239.544 313.976 243.46 315.608 247.593C317.689 252.872 317.653 253.004 317.434 254.666C317.215 256.328 320.051 256.493 320.764 255.116C321.612 253.478 321.843 253.647 320.831 250.008L320.841 250.016Z" fill="#474C6E"/>
</svg>
